#N canvas 382 22 1280 684 12;
#X obj -2869 -18955 dac~;
#X obj -2760 -19257 bp~;
#X obj -2861 -18999 *~;
#X obj -2817 -19424 noise~;
#X obj -2233 -19406 tgl 15 0 empty empty empty 17 7 0 10 -262144 -1
-1 0 1;
#X obj -2084 -19382 select 1;
#X obj -2083 -19349 b;
#X msg -2083 -19323 1;
#X obj -2083 -19299 + 0;
#X msg -2028 -19347 0;
#X obj -1986 -19346 == 2;
#X obj -1989 -19312 select 1;
#X msg -2083 -19218 0;
#X msg -2023 -19222 1;
#X msg -2256 -19103 1;
#X obj -2257 -19060 + 0;
#X msg -2216 -19103 -1;
#X obj -2252 -19198 select 0 1 2;
#X msg -2192 -19239 1;
#X obj -2249 -19262 spigot;
#X obj -2190 -19350 tgl 15 0 empty empty empty 17 7 0 10 -262144 -1
-1 1 1;
#X obj -2157 -19329 select 0;
#X msg -2159 -19286 1;
#X obj -2192 -19262 spigot;
#X msg -2128 -19286 0;
#X msg -2250 -19238 0;
#X obj -2208 -19012 select 1;
#X obj -2208 -19034 <= 0;
#X obj -2063 -19015 select 1;
#X obj -2063 -19062 spigot;
#X obj -2159 -19112 select 0;
#X msg -2163 -19088 1;
#X obj -2208 -19062 spigot;
#X msg -2098 -19088 0;
#X obj -2063 -19037 >= 1000;
#X msg -2050 -19126 \$1;
#X msg -2063 -18993 0;
#X msg -2015 -19161 11025;
#X obj -2259 -18977 + 20;
#X obj -2881 -19372 * 2.5;
#X obj -2881 -19399 abs;
#X obj -2012 -19186 loadbang;
#X obj -2697 -19424 loadbang;
#X obj -2234 -19385 metro 1;
#X obj -2881 -19424 r tilty;
#X obj -2233 -19457 r button1;
#X obj -2233 -19430 t b;
#X obj -2236 -19360 t b;
#X obj -2083 -19273 i;
#X obj -2083 -19248 select 2;
#X obj -2259 -19027 i;
#X obj -2259 -19002 i;
#X obj -2882 -19315 line~;
#X msg -2882 -19345 \$1 30;
#N canvas 477 77 566 597 fft-analyse 0;
#X obj 15 164 *~;
#X obj 14 99 inlet~;
#X obj 15 218 rfft~;
#X obj 14 353 *~;
#X obj 56 353 *~;
#X obj 15 8 block~ 512 4;
#X obj 77 225 *~;
#X obj 16 506 *~;
#X obj 77 283 /~ 768;
#X obj 78 251 *~;
#X obj 15 399 rifft~;
#X obj 16 566 outlet~;
#X obj 76 196 tabreceive~ gain;
#X obj 36 140 tabreceive~ hanning;
#X obj 37 481 tabreceive~ hanning;
#X text 112 237 amplification of;
#X text 119 255 array values;
#X text 140 285 Normalization;
#X connect 0 0 2 0;
#X connect 1 0 0 0;
#X connect 2 0 3 0;
#X connect 2 1 4 0;
#X connect 3 0 10 0;
#X connect 4 0 10 1;
#X connect 6 0 9 0;
#X connect 6 0 9 1;
#X connect 7 0 11 0;
#X connect 8 0 3 1;
#X connect 8 0 4 1;
#X connect 9 0 8 0;
#X connect 10 0 7 0;
#X connect 12 0 6 0;
#X connect 12 0 6 1;
#X connect 13 0 0 1;
#X connect 14 0 7 1;
#X restore -2817 -19400 pd fft-analyse;
#N canvas 311 170 450 300 (subpatch) 0;
#X array gain 256 float 2;
#X coords 0 1 256 -0.01 512 60 1 0 0;
#X restore -1933 -19022 graph;
#N canvas 0 22 450 300 (subpatch) 0;
#X array hanning 512 float 0;
#X coords 0 1 511 0 200 120 1 0 0;
#X restore -1875 -19192 graph;
#X msg -1751 -19375 0;
#X obj -1857 -19326 osc~;
#X obj -1857 -19374 samplerate~;
#X obj -1857 -19303 *~ -0.5;
#X obj -1857 -19280 +~ 0.5;
#X obj -1857 -19350 / 512;
#X obj -1865 -19255 tabwrite~ hanning;
#X obj -1869 -18826 tabwrite gain;
#X obj -1898 -19402 loadbang;
#X msg -1788 -18867 0;
#X obj -1750 -18825 tabwrite gain;
#X obj -1746 -18897 t b f;
#X msg -1669 -18866 1;
#X obj -1626 -18824 tabwrite gain;
#X obj -1622 -18896 t b f;
#X obj -1507 -18823 tabwrite gain;
#X obj -1503 -18895 t b f;
#X msg -1545 -18865 2;
#X msg -1426 -18864 3;
#X obj -1885 -18663 tabwrite gain;
#X obj -1881 -18735 t b f;
#X obj -1766 -18662 tabwrite gain;
#X obj -1762 -18734 t b f;
#X obj -1642 -18661 tabwrite gain;
#X obj -1638 -18733 t b f;
#X obj -1523 -18660 tabwrite gain;
#X obj -1519 -18732 t b f;
#X msg -1804 -18704 4;
#X msg -1685 -18703 5;
#X msg -1561 -18702 6;
#X msg -1442 -18701 7;
#X obj -1893 -18490 tabwrite gain;
#X obj -1889 -18562 t b f;
#X obj -1774 -18489 tabwrite gain;
#X obj -1770 -18561 t b f;
#X obj -1650 -18488 tabwrite gain;
#X obj -1646 -18560 t b f;
#X obj -1531 -18487 tabwrite gain;
#X obj -1527 -18559 t b f;
#X msg -1812 -18531 8;
#X msg -1693 -18530 9;
#X msg -1569 -18529 10;
#X msg -1450 -18528 11;
#X obj -1898 -18329 tabwrite gain;
#X obj -1894 -18401 t b f;
#X obj -1779 -18328 tabwrite gain;
#X obj -1775 -18400 t b f;
#X obj -1655 -18327 tabwrite gain;
#X obj -1651 -18399 t b f;
#X obj -1536 -18326 tabwrite gain;
#X obj -1532 -18398 t b f;
#X msg -1817 -18370 12;
#X msg -1698 -18369 13;
#X msg -1574 -18368 14;
#X msg -1455 -18367 15;
#X obj -1875 -18946 r multislider0;
#X obj -1756 -18945 r multislider1;
#X obj -1632 -18944 r multislider2;
#X obj -1513 -18943 r multislider3;
#X obj -1891 -18783 r multislider4;
#X obj -1772 -18782 r multislider5;
#X obj -1648 -18781 r multislider6;
#X obj -1529 -18780 r multislider7;
#X obj -1899 -18610 r multislider8;
#X obj -1780 -18609 r multislider9;
#X obj -1656 -18608 r multislider10;
#X obj -1537 -18607 r multislider11;
#X obj -1904 -18449 r multislider12;
#X obj -1785 -18448 r multislider13;
#X obj -1661 -18447 r multislider14;
#X obj -1542 -18446 r multislider15;
#X msg -2697 -19399 14;
#X obj -1942 -18166 tabwrite gain;
#X obj -1938 -18238 t b f;
#X obj -1802 -18166 tabwrite gain;
#X obj -1798 -18238 t b f;
#X obj -1665 -18171 tabwrite gain;
#X obj -1661 -18243 t b f;
#X obj -1535 -18170 tabwrite gain;
#X obj -1531 -18242 t b f;
#X obj -1948 -18286 r multislider16;
#X obj -1808 -18286 r multislider17;
#X obj -1671 -18291 r multislider18;
#X obj -1541 -18290 r multislider19;
#X msg -1861 -18207 16;
#X msg -1721 -18207 17;
#X msg -1584 -18212 18;
#X msg -1454 -18211 19;
#X obj -1953 -18020 tabwrite gain;
#X obj -1949 -18092 t b f;
#X obj -1813 -18020 tabwrite gain;
#X obj -1809 -18092 t b f;
#X obj -1676 -18025 tabwrite gain;
#X obj -1672 -18097 t b f;
#X obj -1546 -18024 tabwrite gain;
#X obj -1542 -18096 t b f;
#X obj -1959 -18140 r multislider20;
#X obj -1819 -18140 r multislider21;
#X obj -1682 -18145 r multislider22;
#X obj -1552 -18144 r multislider23;
#X msg -1872 -18061 20;
#X msg -1732 -18061 21;
#X msg -1595 -18066 22;
#X msg -1465 -18065 23;
#X obj -1955 -17864 tabwrite gain;
#X obj -1951 -17936 t b f;
#X obj -1815 -17864 tabwrite gain;
#X obj -1811 -17936 t b f;
#X obj -1678 -17869 tabwrite gain;
#X obj -1674 -17941 t b f;
#X obj -1548 -17868 tabwrite gain;
#X obj -1544 -17940 t b f;
#X obj -1961 -17984 r multislider24;
#X obj -1821 -17984 r multislider25;
#X msg -1874 -17905 24;
#X msg -1734 -17905 25;
#X msg -1597 -17910 26;
#X msg -1467 -17909 27;
#X obj -1684 -17989 r multislider26;
#X obj -1554 -17988 r multislider27;
#X obj -1957 -17709 tabwrite gain;
#X obj -1953 -17781 t b f;
#X obj -1817 -17709 tabwrite gain;
#X obj -1813 -17781 t b f;
#X obj -1680 -17714 tabwrite gain;
#X obj -1676 -17786 t b f;
#X obj -1550 -17713 tabwrite gain;
#X obj -1546 -17785 t b f;
#X obj -1963 -17829 r multislider28;
#X obj -1823 -17829 r multislider29;
#X obj -1686 -17834 r multislider30;
#X obj -1556 -17833 r multislider31;
#X msg -1876 -17750 28;
#X msg -1736 -17750 29;
#X msg -1599 -17755 30;
#X msg -1469 -17754 31;
#X obj -1954 -17563 tabwrite gain;
#X obj -1950 -17635 t b f;
#X obj -1814 -17563 tabwrite gain;
#X obj -1810 -17635 t b f;
#X obj -1677 -17568 tabwrite gain;
#X obj -1673 -17640 t b f;
#X obj -1547 -17567 tabwrite gain;
#X obj -1543 -17639 t b f;
#X obj -1960 -17683 r multislider32;
#X obj -1820 -17683 r multislider33;
#X obj -1683 -17688 r multislider34;
#X obj -1553 -17687 r multislider35;
#X msg -1873 -17604 32;
#X msg -1733 -17604 33;
#X msg -1596 -17609 34;
#X msg -1466 -17608 35;
#X obj -1954 -17405 tabwrite gain;
#X obj -1950 -17477 t b f;
#X obj -1814 -17405 tabwrite gain;
#X obj -1810 -17477 t b f;
#X obj -1677 -17410 tabwrite gain;
#X obj -1673 -17482 t b f;
#X obj -1547 -17409 tabwrite gain;
#X obj -1543 -17481 t b f;
#X obj -1960 -17525 r multislider36;
#X obj -1820 -17525 r multislider37;
#X obj -1683 -17530 r multislider38;
#X obj -1553 -17529 r multislider39;
#X msg -1873 -17446 36;
#X msg -1733 -17446 37;
#X msg -1596 -17451 38;
#X msg -1466 -17450 39;
#X obj -1955 -17258 tabwrite gain;
#X obj -1951 -17330 t b f;
#X obj -1815 -17258 tabwrite gain;
#X obj -1811 -17330 t b f;
#X obj -1678 -17263 tabwrite gain;
#X obj -1674 -17335 t b f;
#X obj -1548 -17262 tabwrite gain;
#X obj -1544 -17334 t b f;
#X obj -1961 -17378 r multislider40;
#X obj -1821 -17378 r multislider41;
#X obj -1684 -17383 r multislider42;
#X obj -1554 -17382 r multislider43;
#X msg -1874 -17299 40;
#X msg -1734 -17299 41;
#X msg -1597 -17304 42;
#X msg -1467 -17303 43;
#X obj -1949 -17109 tabwrite gain;
#X obj -1945 -17181 t b f;
#X obj -1809 -17109 tabwrite gain;
#X obj -1805 -17181 t b f;
#X obj -1672 -17114 tabwrite gain;
#X obj -1668 -17186 t b f;
#X obj -1542 -17113 tabwrite gain;
#X obj -1538 -17185 t b f;
#X obj -1955 -17229 r multislider44;
#X obj -1815 -17229 r multislider45;
#X obj -1678 -17234 r multislider46;
#X obj -1548 -17233 r multislider47;
#X msg -1868 -17150 44;
#X msg -1728 -17150 45;
#X msg -1591 -17155 46;
#X msg -1461 -17154 47;
#X obj -1935 -16818 tabwrite gain;
#X obj -1931 -16890 t b f;
#X obj -1795 -16818 tabwrite gain;
#X obj -1791 -16890 t b f;
#X obj -1658 -16823 tabwrite gain;
#X obj -1654 -16895 t b f;
#X obj -1528 -16822 tabwrite gain;
#X obj -1524 -16894 t b f;
#X obj -1937 -16917 r multislider49;
#X msg -1854 -16859 49;
#X obj -1801 -16938 r multislider50;
#X msg -1714 -16859 50;
#X obj -1664 -16943 r multislider51;
#X msg -1577 -16864 51;
#X obj -1534 -16942 r multislider52;
#X msg -1447 -16863 52;
#X obj -1929 -16675 tabwrite gain;
#X obj -1925 -16747 t b f;
#X obj -1789 -16675 tabwrite gain;
#X obj -1785 -16747 t b f;
#X obj -1652 -16680 tabwrite gain;
#X obj -1648 -16752 t b f;
#X obj -1522 -16679 tabwrite gain;
#X obj -1518 -16751 t b f;
#X obj -1935 -16795 r multislider53;
#X msg -1848 -16716 53;
#X obj -1795 -16795 r multislider54;
#X msg -1708 -16716 54;
#X obj -1658 -16800 r multislider55;
#X msg -1571 -16721 55;
#X obj -1528 -16799 r multislider56;
#X msg -1441 -16720 56;
#X obj -1919 -16531 tabwrite gain;
#X obj -1915 -16603 t b f;
#X obj -1779 -16531 tabwrite gain;
#X obj -1775 -16603 t b f;
#X obj -1642 -16536 tabwrite gain;
#X obj -1638 -16608 t b f;
#X obj -1512 -16535 tabwrite gain;
#X obj -1508 -16607 t b f;
#X obj -1925 -16651 r multislider57;
#X msg -1838 -16572 57;
#X obj -1785 -16651 r multislider58;
#X msg -1698 -16572 48;
#X obj -1648 -16656 r multislider59;
#X msg -1561 -16577 59;
#X obj -1518 -16655 r multislider60;
#X msg -1431 -16576 60;
#X obj -1911 -16355 tabwrite gain;
#X obj -1907 -16427 t b f;
#X obj -1771 -16355 tabwrite gain;
#X obj -1767 -16427 t b f;
#X obj -1634 -16360 tabwrite gain;
#X obj -1630 -16432 t b f;
#X obj -1504 -16359 tabwrite gain;
#X obj -1500 -16431 t b f;
#X obj -1917 -16475 r multislider61;
#X msg -1830 -16396 61;
#X obj -1777 -16475 r multislider62;
#X msg -1690 -16396 62;
#X obj -1640 -16480 r multislider62;
#X obj -1510 -16479 r multislider63;
#X msg -1553 -16401 62;
#X msg -1423 -16400 63;
#X obj -1898 -16195 tabwrite gain;
#X obj -1894 -16267 t b f;
#X obj -1758 -16195 tabwrite gain;
#X obj -1754 -16267 t b f;
#X obj -1621 -16200 tabwrite gain;
#X obj -1617 -16272 t b f;
#X obj -1491 -16199 tabwrite gain;
#X obj -1487 -16271 t b f;
#X obj -1904 -16315 r multislider64;
#X obj -1764 -16315 r multislider65;
#X obj -1627 -16320 r multislider66;
#X obj -1497 -16319 r multislider67;
#X msg -1817 -16236 64;
#X msg -1677 -16236 65;
#X msg -1540 -16241 66;
#X msg -1410 -16240 67;
#X obj -1892 -16045 tabwrite gain;
#X obj -1888 -16117 t b f;
#X obj -1752 -16045 tabwrite gain;
#X obj -1748 -16117 t b f;
#X obj -1615 -16050 tabwrite gain;
#X obj -1611 -16122 t b f;
#X obj -1485 -16049 tabwrite gain;
#X obj -1481 -16121 t b f;
#X obj -1898 -16165 r multislider68;
#X msg -1811 -16086 68;
#X obj -1758 -16165 r multislider69;
#X msg -1671 -16086 69;
#X obj -1621 -16170 r multislider70;
#X msg -1534 -16091 70;
#X obj -1491 -16169 r multislider71;
#X msg -1404 -16090 71;
#X obj -1886 -15900 tabwrite gain;
#X obj -1882 -15972 t b f;
#X obj -1746 -15900 tabwrite gain;
#X obj -1742 -15972 t b f;
#X obj -1609 -15905 tabwrite gain;
#X obj -1605 -15977 t b f;
#X obj -1479 -15904 tabwrite gain;
#X obj -1475 -15976 t b f;
#X obj -1892 -16020 r multislider72;
#X msg -1805 -15941 72;
#X obj -1752 -16020 r multislider73;
#X msg -1665 -15941 73;
#X obj -1615 -16025 r multislider74;
#X msg -1528 -15946 74;
#X obj -1485 -16024 r multislider75;
#X msg -1398 -15945 75;
#X obj -1887 -15730 tabwrite gain;
#X obj -1883 -15802 t b f;
#X obj -1747 -15730 tabwrite gain;
#X obj -1743 -15802 t b f;
#X obj -1610 -15735 tabwrite gain;
#X obj -1606 -15807 t b f;
#X obj -1480 -15734 tabwrite gain;
#X obj -1476 -15806 t b f;
#X obj -1893 -15850 r multislider76;
#X msg -1806 -15772 76;
#X obj -1753 -15850 r multislider77;
#X msg -1666 -15771 77;
#X obj -1616 -15855 r multislider78;
#X msg -1529 -15776 78;
#X obj -1486 -15854 r multislider79;
#X msg -1399 -15775 79;
#X obj -1882 -15584 tabwrite gain;
#X obj -1878 -15656 t b f;
#X obj -1742 -15584 tabwrite gain;
#X obj -1738 -15656 t b f;
#X obj -1605 -15589 tabwrite gain;
#X obj -1601 -15661 t b f;
#X obj -1475 -15588 tabwrite gain;
#X obj -1471 -15660 t b f;
#X msg -1801 -15626 80;
#X obj -1888 -15704 r multislider80;
#X obj -1748 -15704 r multislider81;
#X msg -1661 -15625 81;
#X obj -1611 -15709 r multislider82;
#X obj -1481 -15708 r multislider83;
#X msg -1524 -15630 82;
#X msg -1394 -15629 83;
#X obj -1869 -15425 tabwrite gain;
#X obj -1865 -15497 t b f;
#X obj -1729 -15425 tabwrite gain;
#X obj -1725 -15497 t b f;
#X obj -1592 -15430 tabwrite gain;
#X obj -1588 -15502 t b f;
#X obj -1462 -15429 tabwrite gain;
#X obj -1458 -15501 t b f;
#X obj -1875 -15545 r multislider84;
#X msg -1788 -15467 84;
#X obj -1735 -15545 r multislider85;
#X msg -1648 -15466 85;
#X obj -1598 -15550 r multislider86;
#X msg -1511 -15471 86;
#X obj -1468 -15549 r multislider87;
#X msg -1381 -15470 87;
#X obj -1902 -15282 tabwrite gain;
#X obj -1898 -15354 t b f;
#X obj -1762 -15282 tabwrite gain;
#X obj -1758 -15354 t b f;
#X obj -1625 -15287 tabwrite gain;
#X obj -1621 -15359 t b f;
#X obj -1495 -15286 tabwrite gain;
#X obj -1491 -15358 t b f;
#X obj -1908 -15402 r multislider88;
#X msg -1821 -15324 88;
#X obj -1768 -15402 r multislider89;
#X msg -1681 -15323 89;
#X obj -1631 -15407 r multislider90;
#X msg -1544 -15328 90;
#X msg -1414 -15327 91;
#X obj -1501 -15406 r multislider91;
#X obj -1898 -15130 tabwrite gain;
#X obj -1894 -15202 t b f;
#X obj -1758 -15130 tabwrite gain;
#X obj -1754 -15202 t b f;
#X obj -1621 -15135 tabwrite gain;
#X obj -1617 -15207 t b f;
#X obj -1491 -15134 tabwrite gain;
#X obj -1487 -15206 t b f;
#X obj -1904 -15250 r multislider92;
#X msg -1817 -15172 92;
#X obj -1764 -15250 r multislider93;
#X msg -1677 -15171 93;
#X obj -1627 -15255 r multislider94;
#X msg -1540 -15176 94;
#X obj -1497 -15254 r multislider95;
#X msg -1410 -15175 95;
#X obj -1900 -14968 tabwrite gain;
#X obj -1896 -15040 t b f;
#X obj -1760 -14968 tabwrite gain;
#X obj -1756 -15040 t b f;
#X obj -1623 -14973 tabwrite gain;
#X obj -1619 -15045 t b f;
#X obj -1493 -14972 tabwrite gain;
#X obj -1489 -15044 t b f;
#X obj -1906 -15088 r multislider96;
#X obj -1766 -15088 r multislider97;
#X obj -1629 -15093 r multislider98;
#X obj -1499 -15092 r multislider99;
#X msg -1819 -15010 96;
#X msg -1679 -15009 97;
#X msg -1542 -15014 98;
#X msg -1412 -15013 99;
#X obj -2482 -18598 tabwrite gain;
#X obj -2478 -18670 t b f;
#X obj -2363 -18597 tabwrite gain;
#X obj -2359 -18669 t b f;
#X obj -2239 -18596 tabwrite gain;
#X obj -2235 -18668 t b f;
#X obj -2120 -18595 tabwrite gain;
#X obj -2116 -18667 t b f;
#X obj -2498 -18435 tabwrite gain;
#X obj -2494 -18507 t b f;
#X obj -2379 -18434 tabwrite gain;
#X obj -2375 -18506 t b f;
#X obj -2255 -18433 tabwrite gain;
#X obj -2251 -18505 t b f;
#X obj -2136 -18432 tabwrite gain;
#X obj -2132 -18504 t b f;
#X obj -2506 -18262 tabwrite gain;
#X obj -2502 -18334 t b f;
#X obj -2387 -18261 tabwrite gain;
#X obj -2383 -18333 t b f;
#X obj -2263 -18260 tabwrite gain;
#X obj -2259 -18332 t b f;
#X obj -2144 -18259 tabwrite gain;
#X obj -2140 -18331 t b f;
#X obj -2511 -18101 tabwrite gain;
#X obj -2507 -18173 t b f;
#X obj -2392 -18100 tabwrite gain;
#X obj -2388 -18172 t b f;
#X obj -2268 -18099 tabwrite gain;
#X obj -2264 -18171 t b f;
#X obj -2149 -18098 tabwrite gain;
#X obj -2145 -18170 t b f;
#X obj -2555 -17938 tabwrite gain;
#X obj -2551 -18010 t b f;
#X obj -2415 -17938 tabwrite gain;
#X obj -2411 -18010 t b f;
#X obj -2278 -17943 tabwrite gain;
#X obj -2274 -18015 t b f;
#X obj -2148 -17942 tabwrite gain;
#X obj -2144 -18014 t b f;
#X obj -2566 -17792 tabwrite gain;
#X obj -2562 -17864 t b f;
#X obj -2426 -17792 tabwrite gain;
#X obj -2422 -17864 t b f;
#X obj -2289 -17797 tabwrite gain;
#X obj -2285 -17869 t b f;
#X obj -2159 -17796 tabwrite gain;
#X obj -2155 -17868 t b f;
#X obj -2568 -17636 tabwrite gain;
#X obj -2564 -17708 t b f;
#X obj -2428 -17636 tabwrite gain;
#X obj -2424 -17708 t b f;
#X obj -2291 -17641 tabwrite gain;
#X obj -2287 -17713 t b f;
#X obj -2161 -17640 tabwrite gain;
#X obj -2157 -17712 t b f;
#X obj -2570 -17481 tabwrite gain;
#X obj -2566 -17553 t b f;
#X obj -2430 -17481 tabwrite gain;
#X obj -2426 -17553 t b f;
#X obj -2293 -17486 tabwrite gain;
#X obj -2289 -17558 t b f;
#X obj -2163 -17485 tabwrite gain;
#X obj -2159 -17557 t b f;
#X obj -2567 -17335 tabwrite gain;
#X obj -2563 -17407 t b f;
#X obj -2427 -17335 tabwrite gain;
#X obj -2423 -17407 t b f;
#X obj -2290 -17340 tabwrite gain;
#X obj -2286 -17412 t b f;
#X obj -2160 -17339 tabwrite gain;
#X obj -2156 -17411 t b f;
#X obj -2567 -17177 tabwrite gain;
#X obj -2563 -17249 t b f;
#X obj -2427 -17177 tabwrite gain;
#X obj -2423 -17249 t b f;
#X obj -2290 -17182 tabwrite gain;
#X obj -2286 -17254 t b f;
#X obj -2160 -17181 tabwrite gain;
#X obj -2156 -17253 t b f;
#X obj -2568 -17030 tabwrite gain;
#X obj -2564 -17102 t b f;
#X obj -2428 -17030 tabwrite gain;
#X obj -2424 -17102 t b f;
#X obj -2291 -17035 tabwrite gain;
#X obj -2287 -17107 t b f;
#X obj -2161 -17034 tabwrite gain;
#X obj -2157 -17106 t b f;
#X obj -2562 -16881 tabwrite gain;
#X obj -2558 -16953 t b f;
#X obj -2422 -16881 tabwrite gain;
#X obj -2418 -16953 t b f;
#X obj -2285 -16886 tabwrite gain;
#X obj -2281 -16958 t b f;
#X obj -2155 -16885 tabwrite gain;
#X obj -2151 -16957 t b f;
#X obj -2548 -16590 tabwrite gain;
#X obj -2544 -16662 t b f;
#X obj -2408 -16590 tabwrite gain;
#X obj -2404 -16662 t b f;
#X obj -2271 -16595 tabwrite gain;
#X obj -2267 -16667 t b f;
#X obj -2141 -16594 tabwrite gain;
#X obj -2137 -16666 t b f;
#X obj -2542 -16447 tabwrite gain;
#X obj -2538 -16519 t b f;
#X obj -2402 -16447 tabwrite gain;
#X obj -2398 -16519 t b f;
#X obj -2265 -16452 tabwrite gain;
#X obj -2261 -16524 t b f;
#X obj -2135 -16451 tabwrite gain;
#X obj -2131 -16523 t b f;
#X obj -2532 -16303 tabwrite gain;
#X obj -2528 -16375 t b f;
#X obj -2392 -16303 tabwrite gain;
#X obj -2388 -16375 t b f;
#X obj -2255 -16308 tabwrite gain;
#X obj -2251 -16380 t b f;
#X obj -2125 -16307 tabwrite gain;
#X obj -2121 -16379 t b f;
#X obj -2524 -16127 tabwrite gain;
#X obj -2520 -16199 t b f;
#X obj -2384 -16127 tabwrite gain;
#X obj -2380 -16199 t b f;
#X obj -2117 -16131 tabwrite gain;
#X obj -2113 -16203 t b f;
#X msg -2443 -16168 61;
#X msg -2303 -16168 62;
#X obj -2511 -15967 tabwrite gain;
#X obj -2507 -16039 t b f;
#X obj -2371 -15967 tabwrite gain;
#X obj -2367 -16039 t b f;
#X obj -2234 -15972 tabwrite gain;
#X obj -2230 -16044 t b f;
#X obj -2104 -15971 tabwrite gain;
#X obj -2100 -16043 t b f;
#X obj -2505 -15817 tabwrite gain;
#X obj -2501 -15889 t b f;
#X obj -2365 -15817 tabwrite gain;
#X obj -2361 -15889 t b f;
#X obj -2228 -15822 tabwrite gain;
#X obj -2224 -15894 t b f;
#X obj -2098 -15821 tabwrite gain;
#X obj -2094 -15893 t b f;
#X obj -2499 -15672 tabwrite gain;
#X obj -2495 -15744 t b f;
#X obj -2359 -15672 tabwrite gain;
#X obj -2355 -15744 t b f;
#X obj -2222 -15677 tabwrite gain;
#X obj -2218 -15749 t b f;
#X obj -2092 -15676 tabwrite gain;
#X obj -2088 -15748 t b f;
#X obj -2500 -15502 tabwrite gain;
#X obj -2496 -15574 t b f;
#X obj -2360 -15502 tabwrite gain;
#X obj -2356 -15574 t b f;
#X obj -2223 -15507 tabwrite gain;
#X obj -2219 -15579 t b f;
#X obj -2093 -15506 tabwrite gain;
#X obj -2089 -15578 t b f;
#X obj -2495 -15356 tabwrite gain;
#X obj -2491 -15428 t b f;
#X obj -2355 -15356 tabwrite gain;
#X obj -2351 -15428 t b f;
#X obj -2218 -15361 tabwrite gain;
#X obj -2214 -15433 t b f;
#X obj -2088 -15360 tabwrite gain;
#X obj -2084 -15432 t b f;
#X obj -2482 -15197 tabwrite gain;
#X obj -2478 -15269 t b f;
#X obj -2342 -15197 tabwrite gain;
#X obj -2338 -15269 t b f;
#X obj -2205 -15202 tabwrite gain;
#X obj -2201 -15274 t b f;
#X obj -2075 -15201 tabwrite gain;
#X obj -2071 -15273 t b f;
#X obj -2515 -15054 tabwrite gain;
#X obj -2511 -15126 t b f;
#X obj -2375 -15054 tabwrite gain;
#X obj -2371 -15126 t b f;
#X obj -2238 -15059 tabwrite gain;
#X obj -2234 -15131 t b f;
#X obj -2108 -15058 tabwrite gain;
#X obj -2104 -15130 t b f;
#X obj -2511 -14902 tabwrite gain;
#X obj -2507 -14974 t b f;
#X obj -2371 -14902 tabwrite gain;
#X obj -2367 -14974 t b f;
#X obj -2234 -14907 tabwrite gain;
#X obj -2230 -14979 t b f;
#X obj -2104 -14906 tabwrite gain;
#X obj -2100 -14978 t b f;
#X obj -2513 -14740 tabwrite gain;
#X obj -2509 -14812 t b f;
#X obj -2373 -14740 tabwrite gain;
#X obj -2369 -14812 t b f;
#X obj -2236 -14745 tabwrite gain;
#X obj -2232 -14817 t b f;
#X obj -2106 -14744 tabwrite gain;
#X obj -2102 -14816 t b f;
#X obj -2488 -18718 r multislider100;
#X msg -2401 -18639 100;
#X obj -2337 -18717 r multislider101;
#X msg -2282 -18638 101;
#X obj -2189 -18716 r multislider102;
#X obj -2046 -18715 r multislider103;
#X msg -2158 -18637 102;
#X msg -2039 -18636 103;
#X obj -2520 -18555 r multislider104;
#X msg -2417 -18476 104;
#X msg -2298 -18475 105;
#X obj -2385 -18554 r multislider105;
#X obj -2261 -18553 r multislider106;
#X obj -2142 -18552 r multislider107;
#X msg -2174 -18474 106;
#X msg -2055 -18473 107;
#X msg -2425 -18303 108;
#X msg -2306 -18302 109;
#X msg -2182 -18301 110;
#X msg -2063 -18300 111;
#X obj -2512 -18382 r multislider108;
#X obj -2393 -18381 r multislider109;
#X obj -2269 -18380 r multislider110;
#X obj -2150 -18379 r multislider111;
#X obj -2517 -18221 r multislider112;
#X obj -2398 -18220 r multislider113;
#X obj -2274 -18219 r multislider114;
#X obj -2155 -18218 r multislider115;
#X msg -2430 -18142 112;
#X msg -2311 -18141 113;
#X msg -2187 -18140 114;
#X msg -2068 -18139 115;
#X obj -2561 -18058 r multislider116;
#X obj -2421 -18058 r multislider117;
#X obj -2284 -18063 r multislider118;
#X obj -2154 -18062 r multislider119;
#X msg -2474 -17979 116;
#X msg -2334 -17979 117;
#X msg -2197 -17984 118;
#X msg -2067 -17983 119;
#X obj -2572 -17912 r multislider120;
#X obj -2432 -17912 r multislider121;
#X obj -2295 -17917 r multislider122;
#X obj -2165 -17916 r multislider123;
#X msg -2485 -17833 120;
#X msg -2345 -17833 121;
#X msg -2208 -17838 122;
#X msg -2078 -17837 123;
#X obj -2574 -17756 r multislider124;
#X obj -2434 -17756 r multislider125;
#X obj -2297 -17761 r multislider126;
#X obj -2167 -17760 r multislider127;
#X msg -2487 -17677 124;
#X msg -2347 -17677 125;
#X msg -2210 -17682 126;
#X msg -2080 -17681 127;
#X obj -2576 -17601 r multislider128;
#X obj -2436 -17601 r multislider129;
#X obj -2299 -17606 r multislider130;
#X obj -2169 -17605 r multislider131;
#X msg -2489 -17522 128;
#X msg -2349 -17522 129;
#X msg -2212 -17527 130;
#X msg -2082 -17526 131;
#X obj -2573 -17455 r multislider132;
#X obj -2433 -17455 r multislider133;
#X obj -2296 -17460 r multislider134;
#X obj -2166 -17459 r multislider135;
#X msg -2486 -17376 132;
#X msg -2346 -17376 133;
#X msg -2209 -17381 134;
#X msg -2079 -17380 135;
#X obj -2573 -17297 r multislider136;
#X msg -2486 -17218 136;
#X obj -2433 -17297 r multislider137;
#X msg -2346 -17218 137;
#X obj -2296 -17302 r multislider138;
#X msg -2209 -17223 138;
#X obj -2166 -17301 r multislider139;
#X msg -2079 -17222 139;
#X obj -2574 -17150 r multislider140;
#X obj -2434 -17150 r multislider141;
#X obj -2297 -17155 r multislider142;
#X obj -2167 -17154 r multislider143;
#X msg -2487 -17071 140;
#X msg -2347 -17071 141;
#X msg -2210 -17076 142;
#X msg -2080 -17075 143;
#X msg -2481 -16922 144;
#X msg -2341 -16922 145;
#X msg -2204 -16927 146;
#X msg -2074 -16926 147;
#X obj -2568 -17001 r multislider144;
#X obj -2428 -17001 r multislider145;
#X obj -2291 -17006 r multislider146;
#X obj -2161 -17005 r multislider147;
#X obj -1943 -16965 tabwrite gain;
#X obj -1939 -17037 t b f;
#X msg -1862 -17006 48;
#X obj -1949 -17085 r multislider48;
#X obj -2157 -16735 tabwrite gain;
#X obj -2153 -16807 t b f;
#X obj -2163 -16855 r multislider148;
#X msg -2076 -16776 148;
#X obj -2554 -16710 r multislider149;
#X obj -2414 -16710 r multislider150;
#X obj -2277 -16715 r multislider151;
#X obj -2147 -16714 r multislider152;
#X msg -2467 -16631 149;
#X msg -2327 -16631 150;
#X msg -2190 -16636 151;
#X msg -2060 -16635 152;
#X obj -2548 -16567 r multislider153;
#X obj -2408 -16567 r multislider154;
#X obj -2271 -16572 r multislider155;
#X obj -2141 -16571 r multislider156;
#X msg -2054 -16492 156;
#X msg -2184 -16493 155;
#X msg -2321 -16488 154;
#X msg -2461 -16488 153;
#X obj -2538 -16423 r multislider157;
#X obj -2398 -16423 r multislider158;
#X obj -2261 -16428 r multislider159;
#X obj -2131 -16427 r multislider160;
#X msg -2451 -16344 157;
#X msg -2311 -16344 148;
#X msg -2174 -16349 159;
#X msg -2044 -16348 160;
#X obj -2530 -16247 r multislider161;
#X obj -2390 -16247 r multislider162;
#X obj -2123 -16251 r multislider163;
#X msg -2036 -16172 163;
#X obj -2517 -16087 r multislider164;
#X obj -2377 -16087 r multislider165;
#X obj -2240 -16092 r multislider166;
#X obj -2110 -16091 r multislider167;
#X msg -2430 -16008 164;
#X msg -2290 -16008 165;
#X msg -2153 -16013 166;
#X msg -2023 -16012 167;
#X obj -2511 -15937 r multislider168;
#X obj -2371 -15937 r multislider169;
#X obj -2234 -15942 r multislider170;
#X obj -2104 -15941 r multislider171;
#X msg -2424 -15858 168;
#X msg -2284 -15858 169;
#X msg -2147 -15863 170;
#X msg -2017 -15862 171;
#X msg -2418 -15713 172;
#X obj -2505 -15792 r multislider172;
#X obj -2365 -15792 r multislider173;
#X obj -2228 -15797 r multislider174;
#X obj -2098 -15796 r multislider175;
#X msg -2278 -15713 173;
#X msg -2141 -15718 174;
#X msg -2011 -15717 175;
#X obj -2506 -15622 r multislider176;
#X obj -2366 -15622 r multislider177;
#X obj -2229 -15627 r multislider178;
#X obj -2099 -15626 r multislider179;
#X msg -2419 -15544 176;
#X msg -2279 -15543 177;
#X msg -2142 -15548 178;
#X msg -2012 -15547 179;
#X obj -2501 -15476 r multislider180;
#X msg -2414 -15398 180;
#X obj -2361 -15476 r multislider181;
#X msg -2274 -15397 181;
#X obj -2224 -15481 r multislider182;
#X msg -2137 -15402 182;
#X obj -2094 -15480 r multislider183;
#X msg -2007 -15401 183;
#X obj -2488 -15317 r multislider184;
#X obj -2348 -15317 r multislider185;
#X obj -2211 -15322 r multislider186;
#X obj -2081 -15321 r multislider187;
#X msg -2401 -15239 184;
#X msg -2261 -15238 185;
#X msg -2124 -15243 186;
#X msg -1994 -15242 187;
#X obj -2521 -15174 r multislider188;
#X obj -2381 -15174 r multislider189;
#X obj -2244 -15179 r multislider190;
#X obj -2114 -15178 r multislider191;
#X msg -2434 -15096 188;
#X msg -2294 -15095 189;
#X msg -2157 -15100 190;
#X msg -2027 -15099 191;
#X obj -2517 -15022 r multislider192;
#X obj -2377 -15022 r multislider193;
#X obj -2240 -15027 r multislider194;
#X obj -2110 -15026 r multislider195;
#X msg -2430 -14944 192;
#X msg -2290 -14943 193;
#X msg -2153 -14948 194;
#X msg -2023 -14947 195;
#X obj -2519 -14860 r multislider196;
#X obj -2379 -14860 r multislider197;
#X obj -2242 -14865 r multislider198;
#X obj -2112 -14864 r multislider199;
#X msg -2432 -14782 196;
#X msg -2292 -14781 197;
#X msg -2155 -14786 198;
#X msg -2025 -14785 199;
#X obj -1865 -18898 t b f;
#X obj -1348 -19332 tabwrite gain;
#X msg -1267 -19373 0;
#X obj -1229 -19331 tabwrite gain;
#X obj -1225 -19403 t b f;
#X msg -1148 -19372 1;
#X obj -1105 -19330 tabwrite gain;
#X obj -1101 -19402 t b f;
#X obj -986 -19329 tabwrite gain;
#X obj -982 -19401 t b f;
#X msg -1024 -19371 2;
#X msg -905 -19370 3;
#X obj -1364 -19169 tabwrite gain;
#X obj -1360 -19241 t b f;
#X obj -1245 -19168 tabwrite gain;
#X obj -1241 -19240 t b f;
#X obj -1121 -19167 tabwrite gain;
#X obj -1117 -19239 t b f;
#X obj -1002 -19166 tabwrite gain;
#X obj -998 -19238 t b f;
#X msg -1283 -19210 4;
#X msg -1164 -19209 5;
#X msg -1040 -19208 6;
#X msg -921 -19207 7;
#X obj -1372 -18996 tabwrite gain;
#X obj -1368 -19068 t b f;
#X obj -1253 -18995 tabwrite gain;
#X obj -1249 -19067 t b f;
#X obj -1129 -18994 tabwrite gain;
#X obj -1125 -19066 t b f;
#X obj -1010 -18993 tabwrite gain;
#X obj -1006 -19065 t b f;
#X msg -1291 -19037 8;
#X msg -1172 -19036 9;
#X msg -1048 -19035 10;
#X msg -929 -19034 11;
#X obj -1377 -18835 tabwrite gain;
#X obj -1373 -18907 t b f;
#X msg -1296 -18876 12;
#X obj -1344 -19404 t b f;
#X obj -1354 -19452 r multislider2-0;
#X obj -1235 -19451 r multislider2-1;
#X obj -1111 -19450 r multislider2-2;
#X obj -992 -19449 r multislider2-3;
#X obj -1370 -19294 r multislider2-4;
#X obj -1251 -19288 r multislider2-5;
#X obj -1127 -19287 r multislider2-6;
#X obj -1008 -19286 r multislider2-7;
#X obj -1378 -19116 r multislider2-8;
#X obj -1259 -19115 r multislider2-9;
#X obj -1135 -19114 r multislider2-10;
#X obj -1383 -18954 r multislider2-12;
#X obj -1016 -19113 r multislider2-11;
#X connect 2 0 0 0;
#X connect 2 0 0 1;
#X connect 3 0 54 0;
#X connect 4 0 5 0;
#X connect 4 0 43 0;
#X connect 5 0 6 0;
#X connect 6 0 7 0;
#X connect 7 0 8 0;
#X connect 8 0 48 0;
#X connect 9 0 8 1;
#X connect 9 0 48 0;
#X connect 9 0 48 1;
#X connect 10 0 11 0;
#X connect 11 0 9 0;
#X connect 12 0 20 0;
#X connect 13 0 20 0;
#X connect 14 0 15 0;
#X connect 15 0 50 0;
#X connect 16 0 15 0;
#X connect 17 0 14 0;
#X connect 17 1 16 0;
#X connect 18 0 17 0;
#X connect 19 0 25 0;
#X connect 20 0 19 1;
#X connect 20 0 21 0;
#X connect 20 0 30 0;
#X connect 20 0 29 1;
#X connect 21 0 22 0;
#X connect 21 1 24 0;
#X connect 22 0 23 1;
#X connect 23 0 18 0;
#X connect 24 0 23 1;
#X connect 25 0 17 0;
#X connect 26 0 37 0;
#X connect 27 0 26 0;
#X connect 28 0 36 0;
#X connect 29 0 34 0;
#X connect 30 0 31 0;
#X connect 30 1 33 0;
#X connect 31 0 32 1;
#X connect 32 0 27 0;
#X connect 33 0 32 1;
#X connect 34 0 28 0;
#X connect 35 0 15 1;
#X connect 36 0 15 1;
#X connect 37 0 34 1;
#X connect 37 0 35 0;
#X connect 38 0 1 1;
#X connect 39 0 53 0;
#X connect 40 0 39 0;
#X connect 41 0 37 0;
#X connect 42 0 128 0;
#X connect 43 0 47 0;
#X connect 44 0 40 0;
#X connect 45 0 46 0;
#X connect 46 0 4 0;
#X connect 47 0 23 0;
#X connect 47 0 19 0;
#X connect 48 0 8 1;
#X connect 48 0 10 0;
#X connect 48 0 49 0;
#X connect 49 0 12 0;
#X connect 49 1 13 0;
#X connect 50 0 15 1;
#X connect 50 0 32 0;
#X connect 50 0 29 0;
#X connect 50 0 51 0;
#X connect 51 0 38 0;
#X connect 52 0 2 1;
#X connect 53 0 52 0;
#X connect 54 0 2 0;
#X connect 57 0 58 1;
#X connect 58 0 60 0;
#X connect 59 0 62 0;
#X connect 60 0 61 0;
#X connect 61 0 63 0;
#X connect 62 0 58 0;
#X connect 65 0 57 0;
#X connect 65 0 59 0;
#X connect 65 0 63 0;
#X connect 66 0 64 1;
#X connect 68 0 69 0;
#X connect 68 1 67 0;
#X connect 69 0 67 1;
#X connect 71 0 74 0;
#X connect 71 1 70 0;
#X connect 73 0 75 0;
#X connect 73 1 72 0;
#X connect 74 0 70 1;
#X connect 75 0 72 1;
#X connect 77 0 84 0;
#X connect 77 1 76 0;
#X connect 79 0 85 0;
#X connect 79 1 78 0;
#X connect 81 0 86 0;
#X connect 81 1 80 0;
#X connect 83 0 87 0;
#X connect 83 1 82 0;
#X connect 84 0 76 1;
#X connect 85 0 78 1;
#X connect 86 0 80 1;
#X connect 87 0 82 1;
#X connect 89 0 96 0;
#X connect 89 1 88 0;
#X connect 91 0 97 0;
#X connect 91 1 90 0;
#X connect 93 0 98 0;
#X connect 93 1 92 0;
#X connect 95 0 99 0;
#X connect 95 1 94 0;
#X connect 96 0 88 1;
#X connect 97 0 90 1;
#X connect 98 0 92 1;
#X connect 99 0 94 1;
#X connect 101 0 108 0;
#X connect 101 1 100 0;
#X connect 103 0 109 0;
#X connect 103 1 102 0;
#X connect 105 0 110 0;
#X connect 105 1 104 0;
#X connect 107 0 111 0;
#X connect 107 1 106 0;
#X connect 108 0 100 1;
#X connect 109 0 102 1;
#X connect 110 0 104 1;
#X connect 111 0 106 1;
#X connect 112 0 869 0;
#X connect 113 0 68 0;
#X connect 114 0 71 0;
#X connect 115 0 73 0;
#X connect 116 0 77 0;
#X connect 117 0 79 0;
#X connect 118 0 81 0;
#X connect 119 0 83 0;
#X connect 120 0 89 0;
#X connect 121 0 91 0;
#X connect 122 0 93 0;
#X connect 123 0 95 0;
#X connect 124 0 101 0;
#X connect 125 0 103 0;
#X connect 126 0 105 0;
#X connect 127 0 107 0;
#X connect 128 0 1 2;
#X connect 130 0 141 0;
#X connect 130 1 129 0;
#X connect 132 0 142 0;
#X connect 132 1 131 0;
#X connect 134 0 143 0;
#X connect 134 1 133 0;
#X connect 136 0 144 0;
#X connect 136 1 135 0;
#X connect 137 0 130 0;
#X connect 138 0 132 0;
#X connect 139 0 134 0;
#X connect 140 0 136 0;
#X connect 141 0 129 1;
#X connect 142 0 131 1;
#X connect 143 0 133 1;
#X connect 144 0 135 1;
#X connect 146 0 157 0;
#X connect 146 1 145 0;
#X connect 148 0 158 0;
#X connect 148 1 147 0;
#X connect 150 0 159 0;
#X connect 150 1 149 0;
#X connect 152 0 160 0;
#X connect 152 1 151 0;
#X connect 153 0 146 0;
#X connect 154 0 148 0;
#X connect 155 0 150 0;
#X connect 156 0 152 0;
#X connect 157 0 145 1;
#X connect 158 0 147 1;
#X connect 159 0 149 1;
#X connect 160 0 151 1;
#X connect 162 0 171 0;
#X connect 162 1 161 0;
#X connect 164 0 172 0;
#X connect 164 1 163 0;
#X connect 166 0 173 0;
#X connect 166 1 165 0;
#X connect 168 0 174 0;
#X connect 168 1 167 0;
#X connect 169 0 162 0;
#X connect 170 0 164 0;
#X connect 171 0 161 1;
#X connect 172 0 163 1;
#X connect 173 0 165 1;
#X connect 174 0 167 1;
#X connect 175 0 166 0;
#X connect 176 0 168 0;
#X connect 178 0 189 0;
#X connect 178 1 177 0;
#X connect 180 0 190 0;
#X connect 180 1 179 0;
#X connect 182 0 191 0;
#X connect 182 1 181 0;
#X connect 184 0 192 0;
#X connect 184 1 183 0;
#X connect 185 0 178 0;
#X connect 186 0 180 0;
#X connect 187 0 182 0;
#X connect 188 0 184 0;
#X connect 189 0 177 1;
#X connect 190 0 179 1;
#X connect 191 0 181 1;
#X connect 192 0 183 1;
#X connect 194 0 205 0;
#X connect 194 1 193 0;
#X connect 196 0 206 0;
#X connect 196 1 195 0;
#X connect 198 0 207 0;
#X connect 198 1 197 0;
#X connect 200 0 208 0;
#X connect 200 1 199 0;
#X connect 201 0 194 0;
#X connect 202 0 196 0;
#X connect 203 0 198 0;
#X connect 204 0 200 0;
#X connect 205 0 193 1;
#X connect 206 0 195 1;
#X connect 207 0 197 1;
#X connect 208 0 199 1;
#X connect 210 0 221 0;
#X connect 210 1 209 0;
#X connect 212 0 222 0;
#X connect 212 1 211 0;
#X connect 214 0 223 0;
#X connect 214 1 213 0;
#X connect 216 0 224 0;
#X connect 216 1 215 0;
#X connect 217 0 210 0;
#X connect 218 0 212 0;
#X connect 219 0 214 0;
#X connect 220 0 216 0;
#X connect 221 0 209 1;
#X connect 222 0 211 1;
#X connect 223 0 213 1;
#X connect 224 0 215 1;
#X connect 226 0 237 0;
#X connect 226 1 225 0;
#X connect 228 0 238 0;
#X connect 228 1 227 0;
#X connect 230 0 239 0;
#X connect 230 1 229 0;
#X connect 232 0 240 0;
#X connect 232 1 231 0;
#X connect 233 0 226 0;
#X connect 234 0 228 0;
#X connect 235 0 230 0;
#X connect 236 0 232 0;
#X connect 237 0 225 1;
#X connect 238 0 227 1;
#X connect 239 0 229 1;
#X connect 240 0 231 1;
#X connect 242 0 253 0;
#X connect 242 1 241 0;
#X connect 244 0 254 0;
#X connect 244 1 243 0;
#X connect 246 0 255 0;
#X connect 246 1 245 0;
#X connect 248 0 256 0;
#X connect 248 1 247 0;
#X connect 249 0 242 0;
#X connect 250 0 244 0;
#X connect 251 0 246 0;
#X connect 252 0 248 0;
#X connect 253 0 241 1;
#X connect 254 0 243 1;
#X connect 255 0 245 1;
#X connect 256 0 247 1;
#X connect 258 0 266 0;
#X connect 258 1 257 0;
#X connect 260 0 268 0;
#X connect 260 1 259 0;
#X connect 262 0 270 0;
#X connect 262 1 261 0;
#X connect 264 0 272 0;
#X connect 264 1 263 0;
#X connect 265 0 258 0;
#X connect 266 0 257 1;
#X connect 267 0 260 0;
#X connect 268 0 259 1;
#X connect 269 0 262 0;
#X connect 270 0 261 1;
#X connect 271 0 264 0;
#X connect 272 0 263 1;
#X connect 274 0 282 0;
#X connect 274 1 273 0;
#X connect 276 0 284 0;
#X connect 276 1 275 0;
#X connect 278 0 286 0;
#X connect 278 1 277 0;
#X connect 280 0 288 0;
#X connect 280 1 279 0;
#X connect 281 0 274 0;
#X connect 282 0 273 1;
#X connect 283 0 276 0;
#X connect 284 0 275 1;
#X connect 285 0 278 0;
#X connect 286 0 277 1;
#X connect 287 0 280 0;
#X connect 288 0 279 1;
#X connect 290 0 298 0;
#X connect 290 1 289 0;
#X connect 292 0 300 0;
#X connect 292 1 291 0;
#X connect 294 0 302 0;
#X connect 294 1 293 0;
#X connect 296 0 304 0;
#X connect 296 1 295 0;
#X connect 297 0 290 0;
#X connect 298 0 289 1;
#X connect 299 0 292 0;
#X connect 300 0 291 1;
#X connect 301 0 294 0;
#X connect 302 0 293 1;
#X connect 303 0 296 0;
#X connect 304 0 295 1;
#X connect 306 0 314 0;
#X connect 306 1 305 0;
#X connect 308 0 316 0;
#X connect 308 1 307 0;
#X connect 310 0 319 0;
#X connect 310 1 309 0;
#X connect 312 0 320 0;
#X connect 312 1 311 0;
#X connect 313 0 306 0;
#X connect 314 0 305 1;
#X connect 315 0 308 0;
#X connect 316 0 307 1;
#X connect 317 0 310 0;
#X connect 318 0 312 0;
#X connect 319 0 309 1;
#X connect 320 0 311 1;
#X connect 322 0 333 0;
#X connect 322 1 321 0;
#X connect 324 0 334 0;
#X connect 324 1 323 0;
#X connect 326 0 335 0;
#X connect 326 1 325 0;
#X connect 328 0 336 0;
#X connect 328 1 327 0;
#X connect 329 0 322 0;
#X connect 330 0 324 0;
#X connect 331 0 326 0;
#X connect 332 0 328 0;
#X connect 333 0 321 1;
#X connect 334 0 323 1;
#X connect 335 0 325 1;
#X connect 336 0 327 1;
#X connect 338 0 346 0;
#X connect 338 1 337 0;
#X connect 340 0 348 0;
#X connect 340 1 339 0;
#X connect 342 0 350 0;
#X connect 342 1 341 0;
#X connect 344 0 352 0;
#X connect 344 1 343 0;
#X connect 345 0 338 0;
#X connect 346 0 337 1;
#X connect 347 0 340 0;
#X connect 348 0 339 1;
#X connect 349 0 342 0;
#X connect 350 0 341 1;
#X connect 351 0 344 0;
#X connect 352 0 343 1;
#X connect 354 0 362 0;
#X connect 354 1 353 0;
#X connect 356 0 364 0;
#X connect 356 1 355 0;
#X connect 358 0 366 0;
#X connect 358 1 357 0;
#X connect 360 0 368 0;
#X connect 360 1 359 0;
#X connect 361 0 354 0;
#X connect 362 0 353 1;
#X connect 363 0 356 0;
#X connect 364 0 355 1;
#X connect 365 0 358 0;
#X connect 366 0 357 1;
#X connect 367 0 360 0;
#X connect 368 0 359 1;
#X connect 370 0 378 0;
#X connect 370 1 369 0;
#X connect 372 0 380 0;
#X connect 372 1 371 0;
#X connect 374 0 382 0;
#X connect 374 1 373 0;
#X connect 376 0 384 0;
#X connect 376 1 375 0;
#X connect 377 0 370 0;
#X connect 378 0 369 1;
#X connect 379 0 372 0;
#X connect 380 0 371 1;
#X connect 381 0 374 0;
#X connect 382 0 373 1;
#X connect 383 0 376 0;
#X connect 384 0 375 1;
#X connect 386 0 393 0;
#X connect 386 1 385 0;
#X connect 388 0 396 0;
#X connect 388 1 387 0;
#X connect 390 0 399 0;
#X connect 390 1 389 0;
#X connect 392 0 400 0;
#X connect 392 1 391 0;
#X connect 393 0 385 1;
#X connect 394 0 386 0;
#X connect 395 0 388 0;
#X connect 396 0 387 1;
#X connect 397 0 390 0;
#X connect 398 0 392 0;
#X connect 399 0 389 1;
#X connect 400 0 391 1;
#X connect 402 0 410 0;
#X connect 402 1 401 0;
#X connect 404 0 412 0;
#X connect 404 1 403 0;
#X connect 406 0 414 0;
#X connect 406 1 405 0;
#X connect 408 0 416 0;
#X connect 408 1 407 0;
#X connect 409 0 402 0;
#X connect 410 0 401 1;
#X connect 411 0 404 0;
#X connect 412 0 403 1;
#X connect 413 0 406 0;
#X connect 414 0 405 1;
#X connect 415 0 408 0;
#X connect 416 0 407 1;
#X connect 418 0 426 0;
#X connect 418 1 417 0;
#X connect 420 0 428 0;
#X connect 420 1 419 0;
#X connect 422 0 430 0;
#X connect 422 1 421 0;
#X connect 424 0 431 0;
#X connect 424 1 423 0;
#X connect 425 0 418 0;
#X connect 426 0 417 1;
#X connect 427 0 420 0;
#X connect 428 0 419 1;
#X connect 429 0 422 0;
#X connect 430 0 421 1;
#X connect 431 0 423 1;
#X connect 432 0 424 0;
#X connect 434 0 442 0;
#X connect 434 1 433 0;
#X connect 436 0 444 0;
#X connect 436 1 435 0;
#X connect 438 0 446 0;
#X connect 438 1 437 0;
#X connect 440 0 448 0;
#X connect 440 1 439 0;
#X connect 441 0 434 0;
#X connect 442 0 433 1;
#X connect 443 0 436 0;
#X connect 444 0 435 1;
#X connect 445 0 438 0;
#X connect 446 0 437 1;
#X connect 447 0 440 0;
#X connect 448 0 439 1;
#X connect 450 0 461 0;
#X connect 450 1 449 0;
#X connect 452 0 462 0;
#X connect 452 1 451 0;
#X connect 454 0 463 0;
#X connect 454 1 453 0;
#X connect 456 0 464 0;
#X connect 456 1 455 0;
#X connect 457 0 450 0;
#X connect 458 0 452 0;
#X connect 459 0 454 0;
#X connect 460 0 456 0;
#X connect 461 0 449 1;
#X connect 462 0 451 1;
#X connect 463 0 453 1;
#X connect 464 0 455 1;
#X connect 466 0 666 0;
#X connect 466 1 465 0;
#X connect 468 0 668 0;
#X connect 468 1 467 0;
#X connect 470 0 671 0;
#X connect 470 1 469 0;
#X connect 472 0 672 0;
#X connect 472 1 471 0;
#X connect 474 0 674 0;
#X connect 474 1 473 0;
#X connect 476 0 675 0;
#X connect 476 1 475 0;
#X connect 478 0 679 0;
#X connect 478 1 477 0;
#X connect 480 0 680 0;
#X connect 480 1 479 0;
#X connect 482 0 681 0;
#X connect 482 1 481 0;
#X connect 484 0 682 0;
#X connect 484 1 483 0;
#X connect 486 0 683 0;
#X connect 486 1 485 0;
#X connect 488 0 684 0;
#X connect 488 1 487 0;
#X connect 490 0 693 0;
#X connect 490 1 489 0;
#X connect 492 0 694 0;
#X connect 492 1 491 0;
#X connect 494 0 695 0;
#X connect 494 1 493 0;
#X connect 496 0 696 0;
#X connect 496 1 495 0;
#X connect 498 0 701 0;
#X connect 498 1 497 0;
#X connect 500 0 702 0;
#X connect 500 1 499 0;
#X connect 502 0 703 0;
#X connect 502 1 501 0;
#X connect 504 0 704 0;
#X connect 504 1 503 0;
#X connect 506 0 709 0;
#X connect 506 1 505 0;
#X connect 508 0 710 0;
#X connect 508 1 507 0;
#X connect 510 0 711 0;
#X connect 510 1 509 0;
#X connect 512 0 712 0;
#X connect 512 1 511 0;
#X connect 514 0 717 0;
#X connect 514 1 513 0;
#X connect 516 0 718 0;
#X connect 516 1 515 0;
#X connect 518 0 719 0;
#X connect 518 1 517 0;
#X connect 520 0 720 0;
#X connect 520 1 519 0;
#X connect 522 0 725 0;
#X connect 522 1 521 0;
#X connect 524 0 726 0;
#X connect 524 1 523 0;
#X connect 526 0 727 0;
#X connect 526 1 525 0;
#X connect 528 0 728 0;
#X connect 528 1 527 0;
#X connect 530 0 733 0;
#X connect 530 1 529 0;
#X connect 532 0 734 0;
#X connect 532 1 531 0;
#X connect 534 0 735 0;
#X connect 534 1 533 0;
#X connect 536 0 736 0;
#X connect 536 1 535 0;
#X connect 538 0 738 0;
#X connect 538 1 537 0;
#X connect 540 0 740 0;
#X connect 540 1 539 0;
#X connect 542 0 742 0;
#X connect 542 1 541 0;
#X connect 544 0 744 0;
#X connect 544 1 543 0;
#X connect 546 0 749 0;
#X connect 546 1 545 0;
#X connect 548 0 750 0;
#X connect 548 1 547 0;
#X connect 550 0 751 0;
#X connect 550 1 549 0;
#X connect 552 0 752 0;
#X connect 552 1 551 0;
#X connect 554 0 753 0;
#X connect 554 1 553 0;
#X connect 556 0 754 0;
#X connect 556 1 555 0;
#X connect 558 0 755 0;
#X connect 558 1 557 0;
#X connect 560 0 756 0;
#X connect 560 1 559 0;
#X connect 562 0 773 0;
#X connect 562 1 561 0;
#X connect 564 0 774 0;
#X connect 564 1 563 0;
#X connect 566 0 775 0;
#X connect 566 1 565 0;
#X connect 568 0 776 0;
#X connect 568 1 567 0;
#X connect 570 0 784 0;
#X connect 570 1 569 0;
#X connect 572 0 783 0;
#X connect 572 1 571 0;
#X connect 574 0 782 0;
#X connect 574 1 573 0;
#X connect 576 0 781 0;
#X connect 576 1 575 0;
#X connect 578 0 789 0;
#X connect 578 1 577 0;
#X connect 580 0 790 0;
#X connect 580 1 579 0;
#X connect 582 0 791 0;
#X connect 582 1 581 0;
#X connect 584 0 792 0;
#X connect 584 1 583 0;
#X connect 586 0 591 0;
#X connect 586 1 585 0;
#X connect 588 0 592 0;
#X connect 588 1 587 0;
#X connect 590 0 796 0;
#X connect 590 1 589 0;
#X connect 591 0 585 1;
#X connect 592 0 587 1;
#X connect 594 0 801 0;
#X connect 594 1 593 0;
#X connect 596 0 802 0;
#X connect 596 1 595 0;
#X connect 598 0 803 0;
#X connect 598 1 597 0;
#X connect 600 0 804 0;
#X connect 600 1 599 0;
#X connect 602 0 809 0;
#X connect 602 1 601 0;
#X connect 604 0 810 0;
#X connect 604 1 603 0;
#X connect 606 0 811 0;
#X connect 606 1 605 0;
#X connect 608 0 812 0;
#X connect 608 1 607 0;
#X connect 610 0 813 0;
#X connect 610 1 609 0;
#X connect 612 0 818 0;
#X connect 612 1 611 0;
#X connect 614 0 819 0;
#X connect 614 1 613 0;
#X connect 616 0 820 0;
#X connect 616 1 615 0;
#X connect 618 0 825 0;
#X connect 618 1 617 0;
#X connect 620 0 826 0;
#X connect 620 1 619 0;
#X connect 622 0 827 0;
#X connect 622 1 621 0;
#X connect 624 0 828 0;
#X connect 624 1 623 0;
#X connect 626 0 830 0;
#X connect 626 1 625 0;
#X connect 628 0 832 0;
#X connect 628 1 627 0;
#X connect 630 0 834 0;
#X connect 630 1 629 0;
#X connect 632 0 836 0;
#X connect 632 1 631 0;
#X connect 634 0 841 0;
#X connect 634 1 633 0;
#X connect 636 0 842 0;
#X connect 636 1 635 0;
#X connect 638 0 843 0;
#X connect 638 1 637 0;
#X connect 640 0 844 0;
#X connect 640 1 639 0;
#X connect 642 0 849 0;
#X connect 642 1 641 0;
#X connect 644 0 850 0;
#X connect 644 1 643 0;
#X connect 646 0 851 0;
#X connect 646 1 645 0;
#X connect 648 0 852 0;
#X connect 648 1 647 0;
#X connect 650 0 857 0;
#X connect 650 1 649 0;
#X connect 652 0 858 0;
#X connect 652 1 651 0;
#X connect 654 0 859 0;
#X connect 654 1 653 0;
#X connect 656 0 860 0;
#X connect 656 1 655 0;
#X connect 658 0 865 0;
#X connect 658 1 657 0;
#X connect 660 0 866 0;
#X connect 660 1 659 0;
#X connect 662 0 867 0;
#X connect 662 1 661 0;
#X connect 664 0 868 0;
#X connect 664 1 663 0;
#X connect 665 0 466 0;
#X connect 666 0 465 1;
#X connect 667 0 468 0;
#X connect 668 0 467 1;
#X connect 669 0 470 0;
#X connect 670 0 472 0;
#X connect 671 0 469 1;
#X connect 672 0 471 1;
#X connect 673 0 474 0;
#X connect 674 0 473 1;
#X connect 675 0 475 1;
#X connect 676 0 476 0;
#X connect 677 0 478 0;
#X connect 678 0 480 0;
#X connect 679 0 477 1;
#X connect 680 0 479 1;
#X connect 681 0 481 1;
#X connect 682 0 483 1;
#X connect 683 0 485 1;
#X connect 684 0 487 1;
#X connect 685 0 482 0;
#X connect 686 0 484 0;
#X connect 687 0 486 0;
#X connect 688 0 488 0;
#X connect 689 0 490 0;
#X connect 690 0 492 0;
#X connect 691 0 494 0;
#X connect 692 0 496 0;
#X connect 693 0 489 1;
#X connect 694 0 491 1;
#X connect 695 0 493 1;
#X connect 696 0 495 1;
#X connect 697 0 498 0;
#X connect 698 0 500 0;
#X connect 699 0 502 0;
#X connect 700 0 504 0;
#X connect 701 0 497 1;
#X connect 702 0 499 1;
#X connect 703 0 501 1;
#X connect 704 0 503 1;
#X connect 705 0 506 0;
#X connect 706 0 508 0;
#X connect 707 0 510 0;
#X connect 708 0 512 0;
#X connect 709 0 505 1;
#X connect 710 0 507 1;
#X connect 711 0 509 1;
#X connect 712 0 511 1;
#X connect 713 0 514 0;
#X connect 714 0 516 0;
#X connect 715 0 518 0;
#X connect 716 0 520 0;
#X connect 717 0 513 1;
#X connect 718 0 515 1;
#X connect 719 0 517 1;
#X connect 720 0 519 1;
#X connect 721 0 522 0;
#X connect 722 0 524 0;
#X connect 723 0 526 0;
#X connect 724 0 528 0;
#X connect 725 0 521 1;
#X connect 726 0 523 1;
#X connect 727 0 525 1;
#X connect 728 0 527 1;
#X connect 729 0 530 0;
#X connect 730 0 532 0;
#X connect 731 0 534 0;
#X connect 732 0 536 0;
#X connect 733 0 529 1;
#X connect 734 0 531 1;
#X connect 735 0 533 1;
#X connect 736 0 535 1;
#X connect 737 0 538 0;
#X connect 738 0 537 1;
#X connect 739 0 540 0;
#X connect 740 0 539 1;
#X connect 741 0 542 0;
#X connect 742 0 541 1;
#X connect 743 0 544 0;
#X connect 744 0 543 1;
#X connect 745 0 546 0;
#X connect 746 0 548 0;
#X connect 747 0 550 0;
#X connect 748 0 552 0;
#X connect 749 0 545 1;
#X connect 750 0 547 1;
#X connect 751 0 549 1;
#X connect 752 0 551 1;
#X connect 753 0 553 1;
#X connect 754 0 555 1;
#X connect 755 0 557 1;
#X connect 756 0 559 1;
#X connect 757 0 554 0;
#X connect 758 0 556 0;
#X connect 759 0 558 0;
#X connect 760 0 560 0;
#X connect 762 0 763 0;
#X connect 762 1 761 0;
#X connect 763 0 761 1;
#X connect 764 0 762 0;
#X connect 766 0 768 0;
#X connect 766 1 765 0;
#X connect 767 0 766 0;
#X connect 768 0 765 1;
#X connect 769 0 562 0;
#X connect 770 0 564 0;
#X connect 771 0 566 0;
#X connect 772 0 568 0;
#X connect 773 0 561 1;
#X connect 774 0 563 1;
#X connect 775 0 565 1;
#X connect 776 0 567 1;
#X connect 777 0 570 0;
#X connect 778 0 572 0;
#X connect 779 0 574 0;
#X connect 780 0 576 0;
#X connect 781 0 575 1;
#X connect 782 0 573 1;
#X connect 783 0 571 1;
#X connect 784 0 569 1;
#X connect 785 0 578 0;
#X connect 786 0 580 0;
#X connect 787 0 582 0;
#X connect 788 0 584 0;
#X connect 789 0 577 1;
#X connect 790 0 579 1;
#X connect 791 0 581 1;
#X connect 792 0 583 1;
#X connect 793 0 586 0;
#X connect 794 0 588 0;
#X connect 795 0 590 0;
#X connect 796 0 589 1;
#X connect 797 0 594 0;
#X connect 798 0 596 0;
#X connect 799 0 598 0;
#X connect 800 0 600 0;
#X connect 801 0 593 1;
#X connect 802 0 595 1;
#X connect 803 0 597 1;
#X connect 804 0 599 1;
#X connect 805 0 602 0;
#X connect 806 0 604 0;
#X connect 807 0 606 0;
#X connect 808 0 608 0;
#X connect 809 0 601 1;
#X connect 810 0 603 1;
#X connect 811 0 605 1;
#X connect 812 0 607 1;
#X connect 813 0 609 1;
#X connect 814 0 610 0;
#X connect 815 0 612 0;
#X connect 816 0 614 0;
#X connect 817 0 616 0;
#X connect 818 0 611 1;
#X connect 819 0 613 1;
#X connect 820 0 615 1;
#X connect 821 0 618 0;
#X connect 822 0 620 0;
#X connect 823 0 622 0;
#X connect 824 0 624 0;
#X connect 825 0 617 1;
#X connect 826 0 619 1;
#X connect 827 0 621 1;
#X connect 828 0 623 1;
#X connect 829 0 626 0;
#X connect 830 0 625 1;
#X connect 831 0 628 0;
#X connect 832 0 627 1;
#X connect 833 0 630 0;
#X connect 834 0 629 1;
#X connect 835 0 632 0;
#X connect 836 0 631 1;
#X connect 837 0 634 0;
#X connect 838 0 636 0;
#X connect 839 0 638 0;
#X connect 840 0 640 0;
#X connect 841 0 633 1;
#X connect 842 0 635 1;
#X connect 843 0 637 1;
#X connect 844 0 639 1;
#X connect 845 0 642 0;
#X connect 846 0 644 0;
#X connect 847 0 646 0;
#X connect 848 0 648 0;
#X connect 849 0 641 1;
#X connect 850 0 643 1;
#X connect 851 0 645 1;
#X connect 852 0 647 1;
#X connect 853 0 650 0;
#X connect 854 0 652 0;
#X connect 855 0 654 0;
#X connect 856 0 656 0;
#X connect 857 0 649 1;
#X connect 858 0 651 1;
#X connect 859 0 653 1;
#X connect 860 0 655 1;
#X connect 861 0 658 0;
#X connect 862 0 660 0;
#X connect 863 0 662 0;
#X connect 864 0 664 0;
#X connect 865 0 657 1;
#X connect 866 0 659 1;
#X connect 867 0 661 1;
#X connect 868 0 663 1;
#X connect 869 0 66 0;
#X connect 869 1 64 0;
#X connect 871 0 870 1;
#X connect 873 0 874 0;
#X connect 873 1 872 0;
#X connect 874 0 872 1;
#X connect 876 0 879 0;
#X connect 876 1 875 0;
#X connect 878 0 880 0;
#X connect 878 1 877 0;
#X connect 879 0 875 1;
#X connect 880 0 877 1;
#X connect 882 0 889 0;
#X connect 882 1 881 0;
#X connect 884 0 890 0;
#X connect 884 1 883 0;
#X connect 886 0 891 0;
#X connect 886 1 885 0;
#X connect 888 0 892 0;
#X connect 888 1 887 0;
#X connect 889 0 881 1;
#X connect 890 0 883 1;
#X connect 891 0 885 1;
#X connect 892 0 887 1;
#X connect 894 0 901 0;
#X connect 894 1 893 0;
#X connect 896 0 902 0;
#X connect 896 1 895 0;
#X connect 898 0 903 0;
#X connect 898 1 897 0;
#X connect 900 0 904 0;
#X connect 900 1 899 0;
#X connect 901 0 893 1;
#X connect 902 0 895 1;
#X connect 903 0 897 1;
#X connect 904 0 899 1;
#X connect 906 0 907 0;
#X connect 906 1 905 0;
#X connect 907 0 905 1;
#X connect 908 0 871 0;
#X connect 908 1 870 0;
#X connect 909 0 908 0;
#X connect 910 0 873 0;
#X connect 911 0 876 0;
#X connect 912 0 878 0;
#X connect 913 0 882 0;
#X connect 914 0 884 0;
#X connect 915 0 886 0;
#X connect 916 0 888 0;
#X connect 917 0 894 0;
#X connect 918 0 896 0;
#X connect 919 0 898 0;
#X connect 920 0 906 0;
#X connect 921 0 900 0;
